<svg width="36" height="32" viewBox="0 0 36 32" fill="none" xmlns="http://www.w3.org/2000/svg">
<path d="M25.4658 26.0422H16.9737C17.1998 26.6357 17.2805 27.2742 17.209 27.9048C17.1376 28.5355 16.916 29.1401 16.5628 29.6686C16.0656 30.4128 15.3188 30.957 14.4556 31.204C13.6053 31.4535 12.6948 31.4061 11.8754 31.0696C11.056 30.733 10.377 30.1277 9.95136 29.3542C8.96097 27.5567 9.42456 25.7854 11.3316 24.1504C10.6151 21.1843 9.90395 18.2497 9.19803 15.315C8.23924 11.3323 7.28046 7.34607 6.32167 3.35635C6.13729 2.59124 5.87915 2.39211 5.09948 2.39211H1.38023C1.20729 2.41284 1.03189 2.39688 0.865605 2.34528C0.699316 2.29367 0.54591 2.2076 0.415497 2.09272C0.285084 1.97785 0.180626 1.83678 0.109008 1.67882C0.0373894 1.52087 0.00023726 1.3496 0 1.17633C0.00689437 1.00806 0.0485579 0.843002 0.122394 0.691452C0.196229 0.539903 0.300654 0.405108 0.42916 0.295468C0.557665 0.185827 0.707495 0.103693 0.869312 0.0541851C1.03113 0.00467672 1.20146 -0.0111446 1.3697 0.00770729C2.69198 0.00770729 4.00372 0.00770729 5.34181 0.00770729C6.08322 0.00339736 6.8046 0.246952 7.3902 0.699295C7.97581 1.15164 8.39169 1.78655 8.57113 2.50216C8.7675 3.16202 8.92753 3.83204 9.05052 4.50925C9.12955 4.99661 9.35607 5.08569 9.80913 5.08569C17.8552 5.08569 25.903 5.08569 33.9526 5.08569C34.2673 5.07235 34.5824 5.09877 34.8904 5.1643C35.1848 5.25826 35.4301 5.4639 35.5731 5.73663C35.7161 6.00936 35.7453 6.32718 35.6542 6.62114C34.569 11.1629 33.4803 15.7046 32.388 20.2463C32.2142 20.9695 31.8033 21.2315 30.9393 21.2367H13.0595C13.1814 21.8155 13.3398 22.3861 13.5336 22.9451C13.6458 23.1849 13.832 23.3829 14.065 23.5101C14.2981 23.6374 14.566 23.6873 14.8296 23.6526C16.2783 23.6526 17.727 23.6526 19.181 23.6526C22.4788 23.6526 25.7766 23.6526 29.0744 23.6526C29.8208 23.6091 30.5639 23.7807 31.2148 24.1467C31.8657 24.5127 32.3966 25.0576 32.7441 25.7161C33.0915 26.3747 33.2407 27.1189 33.1738 27.8597C33.1069 28.6004 32.8266 29.3063 32.3667 29.8926C31.9067 30.479 31.2866 30.9209 30.5805 31.1656C29.8745 31.4103 29.1125 31.4472 28.3859 31.272C27.6592 31.0969 26.9988 30.717 26.4837 30.1779C25.9686 29.6389 25.6207 28.9635 25.4816 28.2327C25.4259 27.5038 25.4206 26.7719 25.4658 26.0422ZM24.1066 11.9507L24.4596 7.4963H18.2907L18.6647 11.9507H24.1066ZM16.273 11.9507L15.899 7.47533H9.77752C10.1199 8.91121 10.4413 10.2842 10.789 11.6677C10.8145 11.7387 10.8579 11.8021 10.9151 11.8516C10.9723 11.9012 11.0413 11.9353 11.1156 11.9507C12.8067 11.9769 14.503 11.9716 16.273 11.9716V11.9507ZM26.4878 11.9507C28.2526 11.9507 29.9542 11.9507 31.6505 11.9507C31.7769 11.9507 31.9666 11.7044 32.0087 11.5472C32.2458 10.6406 32.4512 9.72348 32.6672 8.81165C32.7673 8.37669 32.8622 7.94173 32.9675 7.47533H26.8671C26.7407 8.96362 26.6195 10.4152 26.4878 11.9716V11.9507ZM23.5588 18.8418L23.9065 14.3822H18.8544L19.2021 18.8418H23.5588ZM25.9452 18.8418C27.336 18.8418 28.6161 18.8418 29.891 18.8418C29.9973 18.8148 30.0956 18.7626 30.1772 18.6896C30.2589 18.6166 30.3215 18.525 30.3598 18.4226C30.618 17.4793 30.8181 16.5256 31.0447 15.5718C31.1342 15.1788 31.2238 14.791 31.3291 14.3613H26.3087C26.1875 15.8443 26.0716 17.3012 25.9452 18.8733V18.8418ZM12.4906 18.8052H16.7998C16.6945 17.3902 16.6049 16.0225 16.4838 14.6547C16.4566 14.5783 16.4121 14.5092 16.3536 14.4529C16.2951 14.3965 16.2242 14.3544 16.1466 14.3298C14.5978 14.3298 13.049 14.3298 11.4053 14.3298L12.4906 18.8052ZM13.3387 28.9716C13.7403 28.9703 14.1251 28.8117 14.4101 28.5302C14.695 28.2488 14.857 27.867 14.8612 27.4676C14.8556 27.0701 14.6915 26.6911 14.405 26.414C14.1185 26.1368 13.733 25.9842 13.3335 25.9898C12.9339 25.9954 12.5529 26.1586 12.2743 26.4436C11.9957 26.7286 11.8423 27.112 11.8479 27.5095C11.852 27.9016 12.0104 28.2764 12.2891 28.5537C12.5678 28.8309 12.9446 28.9885 13.3387 28.9926V28.9716ZM30.7655 27.5043C30.759 27.1156 30.603 26.7441 30.3296 26.4663C30.0562 26.1885 29.6862 26.0255 29.2957 26.0108C28.8955 26.0224 28.5147 26.1847 28.2301 26.4648C27.9456 26.745 27.7785 27.1221 27.7627 27.52C27.7737 27.9189 27.9426 28.2974 28.2326 28.5732C28.5226 28.8489 28.9104 28.9996 29.3115 28.9926C29.7014 28.983 30.072 28.8218 30.3438 28.5436C30.6156 28.2654 30.767 27.8923 30.7655 27.5043Z" fill="#F9F8CE"/>
</svg>
