<svg width="34" height="27" viewBox="0 0 34 27" fill="none" xmlns="http://www.w3.org/2000/svg">
<g clip-path="url(#clip0_14_388)">
<path d="M34 2.88997C32.803 3.97084 31.3185 4.67449 29.7296 4.91406C28.5162 5.07116 26.7233 5.11135 25.4846 5.21365C19.8258 5.56868 14.15 5.54915 8.49366 5.1552C7.26579 5.04559 5.46202 4.98348 4.24864 4.81907C2.64699 4.58258 1.16018 3.84229 0 2.70364C0.614136 2.08943 1.33478 1.59408 2.12613 1.24221C3.5025 0.573601 4.91147 0.51149 6.3784 0.42015C8.44658 0.27766 10.6995 0.138824 12.7568 0.0657522C17.0108 -0.0688965 21.2689 0.0213489 25.5136 0.336118C26.7559 0.456686 28.5488 0.52245 29.7695 0.701476C31.3766 0.954513 32.8601 1.72322 34 2.89363V2.88997Z" fill="#F9F8CE"/>
<path d="M34 13.6534C32.8042 14.7367 31.3193 15.4418 29.7296 15.6812C28.5162 15.8346 26.7233 15.8785 25.4846 15.9771C19.8259 16.3352 14.15 16.3169 8.49366 15.9223C7.26579 15.8127 5.46202 15.7506 4.24864 15.5862C2.64699 15.3497 1.16018 14.6094 0 13.4707C0.615326 12.858 1.33568 12.3628 2.12613 12.0093C3.5025 11.3444 4.91147 11.2786 6.3784 11.1909C8.44658 11.0484 10.6995 10.9132 12.7568 10.8255C17.0108 10.6909 21.2689 10.7811 25.5136 11.0959C26.7559 11.2128 28.5488 11.2822 29.7695 11.4613C31.3763 11.7153 32.8595 12.4839 34 13.6534Z" fill="#F9F8CE"/>
<path d="M34 24.4206C32.8048 25.5042 31.3194 26.2082 29.7296 26.4447C28.5162 26.6018 26.7233 26.6456 25.4846 26.7442C19.8259 27.1023 14.15 27.084 8.49366 26.6894C7.26579 26.5798 5.46202 26.5177 4.24864 26.3533C2.64619 26.117 1.15897 25.3753 0 24.2342C0.616035 23.6223 1.33623 23.1273 2.12613 22.7728C3.5025 22.1042 4.91147 22.0421 6.3784 21.9544C8.44658 21.8119 10.6995 21.6767 12.7568 21.589C17.0108 21.4544 21.2689 21.5446 25.5136 21.8594C26.7559 21.9763 28.5488 22.0421 29.7695 22.2248C31.3767 22.4773 32.8604 23.2461 34 24.4169V24.4206Z" fill="#F9F8CE"/>
</g>
<defs>
<clipPath id="clip0_14_388">
<rect width="34" height="27" fill="white"/>
</clipPath>
</defs>
</svg>
