<svg width="14" height="14" viewBox="0 0 14 14" fill="none" xmlns="http://www.w3.org/2000/svg">
<path d="M12.3727 0.107422H1.62732C0.789176 0.107422 0.107422 0.789176 0.107422 1.62732V12.3727C0.107422 13.2109 0.789176 13.8926 1.62732 13.8926H12.3727C13.2109 13.8926 13.8926 13.2109 13.8926 12.3727V1.62732C13.8926 0.789176 13.2109 0.107422 12.3727 0.107422ZM7.04152 10.641C5.05676 10.641 3.44206 9.02629 3.44206 7.04152C3.44206 5.05676 5.05676 3.44206 7.04152 3.44206C9.02629 3.44206 10.641 5.05676 10.641 7.04152C10.641 9.02629 9.02629 10.641 7.04152 10.641ZM11.2737 3.65159C10.8093 3.65159 10.4313 3.27373 10.4313 2.80917C10.4313 2.3446 10.8093 1.96674 11.2737 1.96674C11.7381 1.96674 12.1162 2.3446 12.1162 2.80917C12.1162 3.27373 11.7383 3.65159 11.2737 3.65159Z" fill="white"/>
</svg>
