<svg width="240" height="51" viewBox="0 0 240 51" fill="none" xmlns="http://www.w3.org/2000/svg">
<g clip-path="url(#clip0_14_351)">
<path d="M52.506 10.9109C50.6376 11.2393 48.8899 12.0582 47.4413 13.2838C45.9928 14.5095 44.8955 16.098 44.2615 17.8871C43.2878 19.9868 43.0859 22.3631 43.6916 24.5971C44.9454 28.4938 48.8017 29.9005 51.2902 30.8129C52.4938 31.3224 53.7829 31.5998 55.0895 31.6303H55.4504C56.7907 31.5903 58.1045 31.2461 59.2925 30.6237C60.4804 30.0014 61.5116 29.1171 62.3081 28.0376C63.2768 26.6696 63.8667 25.0694 64.0178 23.3995C64.0673 21.6084 63.7375 19.8271 63.0499 18.1726C62.3624 16.5182 61.3327 15.028 60.0285 13.8002C59.0711 12.7855 57.8979 11.999 56.5959 11.4989C55.2938 10.9987 53.8961 10.7978 52.506 10.9109ZM59.1737 25.7756C58.7207 26.3543 58.1448 26.8251 57.4878 27.1538C56.8307 27.4825 56.1089 27.6611 55.3744 27.6765C54.4679 27.675 53.5729 27.4738 52.7529 27.0872C50.6823 26.3459 48.1178 25.4145 47.4529 23.2855C47.1535 21.9082 47.3206 20.4704 47.9278 19.1987C48.3131 18.0698 48.982 17.0591 49.8702 16.2635C50.7584 15.4679 51.8361 14.9142 52.9999 14.6556H53.4558C54.9662 14.7644 56.3788 15.4439 57.407 16.5565C58.2923 17.3893 58.9996 18.3931 59.4861 19.5072C59.9726 20.6213 60.2282 21.8226 60.2375 23.0384C60.1278 24.0281 59.761 24.9718 59.1737 25.7756Z" fill="#F9F8CE"/>
<path d="M80.4494 11.044C79.0231 11.0396 77.6115 11.3313 76.3036 11.9006C74.9957 12.4699 73.82 13.3044 72.8508 14.3514C71.9145 15.329 71.2005 16.4977 70.7578 17.7773C70.3152 19.0569 70.1543 20.4171 70.2863 21.7648C70.6581 23.6626 71.5749 25.4107 72.9245 26.795C74.2742 28.1793 75.998 29.1396 77.8849 29.5583C78.8193 29.8169 79.7838 29.9511 80.7533 29.9575C82.3226 29.9794 83.8653 29.5506 85.1985 28.7219C86.3354 27.9249 87.2883 26.8932 87.9929 25.6963C88.6975 24.4994 89.1373 23.1652 89.2827 21.7838C89.61 20.5421 89.6777 19.2462 89.4815 17.9772C89.2854 16.7081 88.8297 15.4932 88.1429 14.4085C87.239 13.2543 86.0629 12.3427 84.7201 11.7554C83.3773 11.1682 81.9099 10.9237 80.4494 11.044ZM85.3694 20.7763C85.3194 21.6147 85.0921 22.4329 84.7024 23.1768C84.3127 23.9207 83.7695 24.5732 83.1089 25.0913C82.4704 25.4437 81.7651 25.658 81.0386 25.7202C80.3121 25.7824 79.5807 25.6912 78.8917 25.4524C77.7643 25.2076 76.7277 24.6526 75.8987 23.8499C75.0697 23.0472 74.4812 22.0288 74.1996 20.9094C74.1366 20.1357 74.2322 19.3573 74.4805 18.6219C74.7287 17.8865 75.1244 17.2095 75.6433 16.6325C76.2536 15.9836 76.9935 15.4706 77.815 15.1267C78.6365 14.7828 79.5211 14.6158 80.4114 14.6366C81.2407 14.5535 82.0779 14.6687 82.854 14.9727C83.6302 15.2767 84.323 15.7609 84.8755 16.3854C85.2456 17.0476 85.48 17.777 85.5648 18.531C85.6496 19.285 85.5832 20.0484 85.3694 20.7763Z" fill="#F9F8CE"/>
<path d="M105.031 22.8103C106.236 22.8043 107.417 22.4657 108.442 21.8319C109.468 21.1981 110.299 20.2935 110.844 19.2177C113.028 15.2068 110.179 11.12 105.677 10.7969C103.912 10.5701 102.119 10.7789 100.453 11.4051C99.5441 11.7871 98.7182 12.3423 98.0213 13.0399C97.3942 13.6856 96.9486 14.4856 96.7296 15.3589C96.4756 16.4617 96.4177 17.6006 96.5586 18.7234C96.6726 20.8509 96.6726 22.9829 96.5586 25.1103C96.4543 26.6736 96.4543 28.2421 96.5586 29.8054C96.5118 30.8703 96.8641 31.9142 97.5464 32.7327C98.3759 32.0549 98.9077 31.0794 99.0281 30.0145C99.5682 27.7906 99.8738 25.5161 99.94 23.2285C100.453 23.6657 101.023 24.0648 101.479 24.426C102.941 25.4905 104.613 26.65 106 27.7525C107.196 28.7529 108.466 29.6616 109.799 30.4707C110.701 31.0546 111.766 31.3343 112.838 31.2691C112.78 30.5622 112.582 29.874 112.256 29.2443C111.93 28.6145 111.482 28.0558 110.939 27.6004C109.096 25.8542 107.12 24.2527 105.031 22.8103ZM100.852 19.1606L100.035 19.0466C99.7683 17.8654 99.9229 16.6281 100.472 15.549C100.838 15.2166 101.246 14.9352 101.688 14.7126L102.334 14.4845C103.035 14.3084 103.76 14.2506 104.48 14.3134C105.186 14.2908 105.89 14.407 106.551 14.6556C107.081 14.8656 107.514 15.2653 107.766 15.7771C107.915 16.3813 107.872 17.0167 107.644 17.5956C107.416 18.1745 107.014 18.6682 106.494 19.0086C105.392 19.7499 103.872 19.5788 100.852 19.2367V19.1606Z" fill="#F9F8CE"/>
<path d="M135.121 24.9202C134.722 25.3764 134.456 25.7186 134.133 26.1178C133.983 26.344 133.79 26.5379 133.564 26.688C133.229 26.8685 132.871 27.0028 132.5 27.0872H132.234C129.973 27.5814 125.946 27.8666 124.217 24.0838C123.85 23.2234 123.681 22.2911 123.724 21.3564C123.767 20.4216 124.02 19.5086 124.464 18.6854C124.86 17.859 125.439 17.1335 126.156 16.5638C126.874 15.9941 127.711 15.5951 128.605 15.3969C129.529 15.1814 130.495 15.2208 131.398 15.511C131.918 15.7155 132.42 15.9635 132.899 16.2523L133.355 16.5565C133.924 16.9919 134.568 17.3203 135.254 17.5259C135.567 17.2874 135.804 16.9641 135.938 16.5945C136.058 15.8465 135.961 15.0798 135.657 14.3856C135.354 13.6914 134.858 13.0989 134.228 12.6787C132.558 11.6611 130.614 11.1843 128.662 11.3136C126.711 11.4429 124.847 12.1719 123.324 13.401C121.363 14.9323 120.012 17.115 119.518 19.5551C119.023 21.9951 119.416 24.5318 120.627 26.707C121.475 28.218 122.719 29.4683 124.226 30.3226C125.733 31.1769 127.444 31.6028 129.175 31.5542C129.593 31.5542 130.011 31.5542 130.429 31.5542C132.091 31.5383 133.706 30.9996 135.045 30.0145C135.518 29.5923 135.884 29.0635 136.112 28.4718C136.34 27.8801 136.423 27.2425 136.356 26.612C136.338 26.24 136.212 25.8813 135.993 25.5805C135.773 25.2798 135.47 25.0502 135.121 24.9202Z" fill="#F9F8CE"/>
<path d="M192.376 20.3962H192.243C191.692 18.4953 191.104 16.9366 190.477 15.3779C190.477 15.2068 190.325 15.0168 190.23 14.8267C189.625 12.9798 188.48 11.3572 186.943 10.1696C186.353 9.80623 185.657 9.65184 184.968 9.73111C184.279 9.81038 183.637 10.1187 183.144 10.6068C182.126 11.7745 181.333 13.1217 180.807 14.5796L180.295 15.7391C179.611 17.2408 178.965 18.8755 178.395 20.5673L176.666 20.4912C175.475 20.4304 174.301 20.8016 173.361 21.5367L173.247 21.6317V21.7458C173.665 22.3898 174.225 22.93 174.883 23.3252C175.542 23.7204 176.281 23.9604 177.046 24.0268C175.867 26.8407 175.422 29.9086 175.754 32.9418V33.265L175.982 33.0179C177.808 30.8136 179.218 28.2951 180.143 25.5855C180.276 25.2434 180.409 24.8822 180.561 24.54C183.538 24.8436 186.54 24.8054 189.508 24.426C189.85 25.4905 190.173 26.593 190.496 27.6765C191.028 29.7201 192.183 31.5471 193.801 32.9038L194.048 33.0939V32.7898C194.2 30.793 194.079 28.7849 193.687 26.8211C193.478 25.8326 193.25 24.9202 193.003 23.8367C193.889 23.7904 194.754 23.5543 195.541 23.1444C196.327 22.7345 197.017 22.1603 197.562 21.4607V21.3086L197.429 21.2135C195.886 20.3778 194.105 20.0897 192.376 20.3962ZM182.365 20.6623C183.258 18.7614 184.265 16.8606 185.139 14.9597L185.367 14.5415C185.845 15.2938 186.264 16.0818 186.62 16.8986V17.0887C187.133 18.2102 187.627 19.4267 188.121 20.7003C186.411 20.6433 184.436 20.6623 182.365 20.6623Z" fill="#F9F8CE"/>
<path d="M166.807 20.016C166.411 19.9934 166.017 19.9426 165.629 19.8639L164.641 19.7309C164.262 19.6928 163.88 19.6928 163.501 19.7309C163.501 18.4003 163.501 17.0887 163.311 15.7961V15.568C163.385 14.643 163.253 13.7131 162.925 12.8453C162.596 11.9776 162.08 11.1935 161.412 10.5497C160.735 11.1708 160.212 11.9403 159.882 12.7977C159.553 13.6552 159.426 14.5773 159.512 15.492V15.8151C159.398 17.1837 159.341 18.5904 159.303 19.997H158.125H156.739C154.972 19.997 153.148 19.997 151.401 20.2251H151.002C151.002 18.6664 151.002 17.1077 150.793 15.644V15.492C150.869 14.5696 150.739 13.6418 150.41 12.7767C150.081 11.9116 149.563 11.1312 148.893 10.4927C148.219 11.1118 147.698 11.8781 147.368 12.732C147.039 13.5859 146.91 14.5044 146.994 15.4159V15.7581C146.88 17.2217 146.804 18.7424 146.785 20.2821C146.188 20.3098 145.596 20.399 145.018 20.5482C144.684 20.6371 144.36 20.758 144.049 20.9094L143.555 21.0995H143.346C143.194 21.2516 143.194 21.4797 143.346 21.7648C143.997 22.744 145.007 23.427 146.158 23.6656L146.88 23.7797C146.88 24.8442 146.88 25.8897 147.051 26.8591C147.051 27.0492 147.051 27.2202 147.051 27.3723C146.985 28.288 147.121 29.2069 147.45 30.0641C147.778 30.9214 148.29 31.6961 148.95 32.3336V32.4476L149.064 32.3336C149.844 31.6355 150.389 30.7123 150.622 29.6914C150.741 29.0642 150.811 28.4286 150.831 27.7905V26.9351C150.831 26.0607 150.945 25.1863 150.983 24.3309C153.782 24.5185 156.593 24.4485 159.379 24.1219C159.379 25.1103 159.474 26.0227 159.531 26.9921C159.531 27.1632 159.531 27.3343 159.531 27.5054C159.454 28.4123 159.573 29.3252 159.881 30.1816C160.19 31.0379 160.679 31.8174 161.317 32.4666L161.431 32.5617L161.545 32.4666C162.32 31.7565 162.863 30.8291 163.102 29.8054C163.213 29.177 163.283 28.542 163.311 27.9046C163.311 27.6004 163.311 27.2963 163.311 27.0302C163.311 25.8706 163.463 24.6541 163.482 23.4185C164.594 23.2023 165.61 22.6441 166.389 21.8218C166.597 21.611 166.755 21.3569 166.854 21.0776C166.952 20.7983 166.988 20.5008 166.959 20.2061V20.073L166.807 20.016Z" fill="#F9F8CE"/>
<path d="M27.4307 3.07922C24.219 0.881157 20.3747 -0.200727 16.4888 -0.000169516C12.9444 -0.0239112 9.49151 1.12555 6.6677 3.2693C3.54682 5.76931 1.47883 9.35161 0.873806 13.3058C-0.265975 20.9093 4.67308 26.4788 6.70569 28.5127L5.69888 29.7292C4.5591 31.1739 3.34333 32.7896 2.22255 34.2723C1.36351 35.2574 0.716815 36.4092 0.322912 37.6558C0.0841926 38.3852 -0.0251026 39.1507 -2.61874e-05 39.9178C1.4443 39.7948 2.81024 39.2081 3.89423 38.2451C4.71107 37.5228 5.79386 36.3442 6.61071 35.5459C7.97844 34.1392 9.32719 32.7136 10.6189 31.2309C12.2613 32.0793 14.0036 32.7179 15.8049 33.1318C17.6316 33.6421 19.5132 33.9294 21.4089 33.9872C23.038 33.9957 24.6526 33.6791 26.158 33.0557C32.5027 30.4326 34.2884 23.2853 34.6873 21.1564C35.2987 17.7653 34.9422 14.2704 33.6586 11.0729C32.375 7.87541 30.2165 5.10484 27.4307 3.07922ZM30.2232 20.358C30.0332 21.4795 28.7795 27.087 24.4293 28.8929C21.9488 29.6809 19.2777 29.6274 16.8307 28.7408C15.7235 28.4875 14.6423 28.1311 13.6014 27.6763C14.5892 26.4788 15.501 25.2622 16.4888 24.0267C17.1347 23.1143 18.1605 21.8787 18.7494 20.9473C19.5171 19.7322 19.9072 18.3165 19.8702 16.8794C18.4174 16.9701 17.0352 17.5381 15.9379 18.4952C15.1021 19.2175 14.0383 20.396 13.2024 21.1754C11.936 22.4426 10.7392 23.7099 9.61213 24.9771C7.99744 23.3804 4.48311 19.2745 5.29996 13.9521C5.74849 11.1357 7.24901 8.59469 9.49815 6.84292C11.5678 5.32557 14.0754 4.52477 16.6408 4.56189H17.1917C19.8965 4.51796 22.5493 5.30768 24.7902 6.82391C26.8636 8.35142 28.4704 10.4271 29.4301 12.8178C30.3898 15.2086 30.6645 17.8197 30.2232 20.358Z" fill="#F9F8CE"/>
<path d="M205.294 21.1945C205.693 23.3235 207.478 30.4707 213.823 33.0939C215.328 33.7187 216.943 34.0354 218.572 34.0253C220.5 33.9752 222.414 33.688 224.271 33.1699C226.067 32.7583 227.803 32.1195 229.438 31.2691C230.749 32.7518 232.098 34.1774 233.465 35.584C234.263 36.3634 235.365 37.4849 236.163 38.2832C237.254 39.2465 238.626 39.833 240.076 39.956C240.128 39.1871 240.044 38.415 239.829 37.675C239.421 36.4348 238.776 35.2857 237.93 34.2915C236.809 32.8088 235.593 31.1931 234.434 29.7484C234.092 29.3112 233.75 28.874 233.389 28.4558C235.46 26.555 240.38 20.8524 239.24 13.249C238.655 9.3156 236.623 5.74286 233.541 3.23144C230.65 1.05423 227.11 -0.0842154 223.492 -1.51489e-05C219.615 -0.203345 215.778 0.871746 212.569 3.06036C209.77 5.08817 207.602 7.8671 206.314 11.076C205.027 14.285 204.673 17.7929 205.294 21.1945ZM215.172 6.80505C217.413 5.28882 220.066 4.4991 222.77 4.54303H223.302C225.881 4.49336 228.405 5.295 230.483 6.82406C232.689 8.60665 234.152 11.1482 234.586 13.9523C234.767 15.9983 234.471 18.0584 233.723 19.9711C232.975 21.8838 231.794 23.5973 230.274 24.9772C229.096 23.6847 227.899 22.4111 226.665 21.1755C225.867 20.3962 224.765 19.2747 223.948 18.4953C222.844 17.5381 221.455 16.9704 219.997 16.8796C219.969 18.3156 220.358 19.7288 221.118 20.9474C221.726 21.8789 222.751 23.1144 223.397 24.0268C224.328 25.2624 225.297 26.4789 226.266 27.6765C225.226 28.1339 224.144 28.4904 223.036 28.7409C220.589 29.6276 217.918 29.6811 215.438 28.893C211.107 27.0872 209.853 21.4797 209.739 20.3582C209.301 17.8172 209.577 15.2043 210.536 12.8111C211.495 10.4179 213.1 8.33856 215.172 6.80505Z" fill="#F9F8CE"/>
<path d="M39.5696 48.0346V48.3768C39.5696 48.6429 39.5696 48.795 39.3037 48.833H39.1327C38.7718 48.833 38.1829 48.3388 37.347 47.3313H36.4922C36.3782 47.3313 36.3402 47.3313 36.3402 47.4834C36.3299 47.5399 36.3299 47.5979 36.3402 47.6545C36.2072 48.5289 36.0173 48.9851 35.7703 48.9851H35.2384C35.0295 48.871 34.8585 48.1297 34.7065 46.7991C34.7013 46.7104 34.7013 46.6216 34.7065 46.533C34.7065 46.3619 34.7065 45.1263 34.5546 42.8263C35.0556 42.4159 35.6942 42.2119 36.3402 42.256H36.5682C37.2667 42.1788 37.9711 42.3344 38.5722 42.6987C39.1733 43.063 39.6374 43.6157 39.8925 44.2709V44.6321C39.8895 45.0904 39.7647 45.5396 39.5311 45.9337C39.2974 46.3278 38.9632 46.6527 38.5628 46.8751C38.5628 46.8751 38.9807 47.2933 39.5696 48.0346ZM36.2452 46.1338C37.8219 45.9627 38.6008 45.5065 38.6008 44.7271V44.5371C38.6008 43.4726 36.9481 43.1875 36.0743 43.1875H35.8843C36.0738 44.1854 36.1943 45.1953 36.2452 46.2098V46.1338Z" fill="#F9F8CE"/>
<path d="M42.0391 46.0007C42.0391 45.4305 42.0391 44.5181 41.9061 43.2825H42.0391L41.9061 43.0734V42.7883C41.9061 42.237 42.571 41.9709 43.9197 41.9709H44.3187C46.2183 41.9709 47.0162 42.237 47.0162 42.7883C46.8768 43.0544 46.7439 43.1875 46.6172 43.1875C45.8954 43.1875 44.9645 43.1875 43.7868 43.0734C43.6624 43.1368 43.5269 43.1755 43.3878 43.1875V45.0883L43.5208 45.2974L44.4706 45.2024H45.8194C45.9524 45.2024 46.1233 45.3354 46.3513 45.6016V46.0007C46.3513 46.0958 46.1613 46.2478 45.8194 46.3999H43.6918C43.5208 46.3999 43.4258 46.495 43.4258 46.609C43.4226 47.1216 43.5127 47.6304 43.6918 48.1107C45.1165 47.9776 45.9144 47.9206 46.1233 47.9206L46.5222 48.3198V48.719C46.5222 49.0991 45.8194 49.2892 44.4136 49.2892H42.742C42.3051 49.2892 42.0771 48.9851 42.0771 48.3768L42.0391 46.0007Z" fill="#F9F8CE"/>
<path d="M52.6387 44.2709C53.7785 42.7883 54.5383 42.0469 54.9372 42.0469H55.4121C55.9251 42.0469 56.5709 43.8147 57.3118 47.3503V47.6355C57.3118 47.7495 57.1788 47.8826 56.9319 48.0537H56.172C55.9251 48.0537 55.4881 46.8561 54.8803 44.48C54.813 44.3078 54.7621 44.1296 54.7283 43.9478C53.6645 45.2404 52.9806 45.8487 52.7147 45.8487H52.4487C51.6877 45.3705 51.0079 44.7737 50.4351 44.0809V45.4115C50.4351 47.3123 50.4351 48.2247 50.2071 48.2247H49.7702C49.5423 48.2247 49.3903 47.8636 49.3333 47.1412C49.2763 46.4189 49.3333 45.8487 49.3333 45.0313V43.0734C49.3119 42.9308 49.3374 42.7851 49.4059 42.6583C49.4744 42.5314 49.5823 42.4303 49.7132 42.3701C49.8842 42.3701 49.9602 42.3701 49.9602 42.3701C50.1829 42.3705 50.4031 42.4182 50.6061 42.5099C50.8091 42.6017 50.9904 42.7354 51.138 42.9023C51.6744 43.3171 52.1763 43.7748 52.6387 44.2709Z" fill="#F9F8CE"/>
<path d="M65.3095 48.3958C64.7776 48.1107 64.5116 47.7875 64.5116 47.3884H60.9213L59.9905 48.9471H59.4396C59.2496 48.814 59.1547 48.6999 59.1547 48.5669V48.4148C59.7275 46.2037 60.5696 44.0715 61.6622 42.0659L61.8711 41.9139H62.0041H62.1561C62.9919 41.9139 64.3217 43.8147 66.1453 47.7115V47.8636C66.0123 48.2247 65.8224 48.3958 65.5944 48.3958H65.2905H65.3095ZM63.8088 46.2288C63.4288 45.351 62.9163 44.5367 62.2891 43.8147L61.2823 46.2859L63.8088 46.2288Z" fill="#F9F8CE"/>
<path d="M69.6978 45.2214C69.8763 46.4106 69.9652 47.6115 69.9637 48.814C69.9307 48.9277 69.8749 49.0335 69.7998 49.125C69.7247 49.2165 69.6318 49.2917 69.5268 49.3462H69.0709C68.596 49.3462 68.349 48.0347 68.349 45.3925V43.1495C68.3395 43.0631 68.3498 42.9757 68.3792 42.8939C68.4086 42.8121 68.4562 42.7382 68.5186 42.6777C68.5809 42.6171 68.6562 42.5717 68.7387 42.5447C68.8213 42.5178 68.9089 42.5101 68.9949 42.5222C69.5771 43.2933 69.8299 44.264 69.6978 45.2214Z" fill="#F9F8CE"/>
<path d="M73.3637 48.2627H72.9458C72.7748 48.2627 72.6418 48.0727 72.5848 47.6925C72.5848 44.1379 72.7558 42.3701 73.1167 42.3701H73.4207C73.8006 42.3701 74.5225 42.9023 75.5673 43.9858C76.3579 44.8672 77.2084 45.6929 78.1128 46.4569C78.4167 44.0999 78.7207 42.9213 79.0816 42.9213H79.7845C80.0694 43.0354 80.2214 43.2065 80.2214 43.4536C79.8435 44.6473 79.5889 45.8766 79.4615 47.1222C79.3972 47.4551 79.3528 47.7915 79.3285 48.1297C79.1534 48.2651 78.9416 48.3446 78.7207 48.3578H78.4547C78.1888 48.3578 77.4859 47.8065 76.3461 46.704L74.0856 44.499C74.0373 45.6573 73.8847 46.8088 73.6296 47.9396C73.5726 48.1487 73.4777 48.2627 73.3637 48.2627Z" fill="#F9F8CE"/>
<path d="M82.3114 44.1189V43.9098C82.6343 42.7693 83.2042 42.218 84.0211 42.218H84.458C84.8189 42.218 85.0089 42.3701 85.0089 42.5792V42.8643C84.7248 43.1093 84.3957 43.2965 84.0401 43.4156C83.8383 43.6216 83.7113 43.8893 83.6791 44.1759C83.6791 44.6131 84.1161 45.1073 84.9899 45.6206C85.4588 46.0603 85.7722 46.6408 85.8827 47.2743C85.8827 48.0853 85.2495 48.7506 83.9831 49.2702H83.3942C82.8623 49.2702 82.5963 49.0041 82.5963 48.6619C82.608 48.6313 82.608 48.5975 82.5963 48.5669C82.5963 48.2247 82.8813 48.0156 83.4702 47.9396C83.6246 47.9626 83.7823 47.9429 83.9263 47.8826C84.0703 47.8223 84.1951 47.7237 84.287 47.5974C84.3503 47.536 84.3999 47.462 84.4326 47.3801C84.4654 47.2982 84.4805 47.2104 84.477 47.1222C84.477 46.9512 84.0401 46.514 83.1472 45.8296C82.9427 45.7283 82.7859 45.5509 82.7103 45.3354C82.4744 44.9713 82.337 44.5521 82.3114 44.1189Z" fill="#F9F8CE"/>
<path d="M89.6437 49.7644C89.4158 50.5818 89.0359 51 88.504 51C88.409 51 88.333 51 88.219 50.7149V50.6198C88.2937 50.2546 88.4218 49.9023 88.5989 49.5744C87.7821 49.5744 87.3832 49.3653 87.3832 48.9091V48.6239C87.4972 47.9966 87.8201 47.6925 88.314 47.6925C88.7051 47.7956 89.0497 48.0285 89.2912 48.3531C89.5328 48.6778 89.6571 49.0748 89.6437 49.4793V49.7644Z" fill="#F9F8CE"/>
<path d="M100.035 48.0346V48.3768C100.035 48.6429 100.035 48.795 99.7687 48.833H99.5978C99.2558 48.833 98.6669 48.3388 97.8311 47.3313H96.8813C96.8687 47.3437 96.8586 47.3585 96.8518 47.3748C96.8449 47.3911 96.8414 47.4087 96.8414 47.4264C96.8414 47.4441 96.8449 47.4616 96.8518 47.4779C96.8586 47.4942 96.8687 47.509 96.8813 47.5214C96.8709 47.578 96.8709 47.6359 96.8813 47.6925C96.7483 48.5669 96.5583 49.0231 96.3304 49.0231H95.7795C95.5895 48.909 95.3996 48.1677 95.2476 46.8371C95.2424 46.7485 95.2424 46.6596 95.2476 46.571C95.2476 46.3999 95.2476 45.1643 95.1146 42.8643C95.607 42.4516 96.2407 42.247 96.8813 42.2941H97.1092C97.7924 42.2384 98.4753 42.4042 99.0569 42.7671C99.6385 43.13 100.088 43.6706 100.339 44.309V44.6701C100.336 45.1284 100.211 45.5776 99.9771 45.9717C99.7435 46.3659 99.4093 46.6908 99.0089 46.9131C99.3725 47.2665 99.715 47.641 100.035 48.0346ZM96.7103 46.1338C98.287 45.9627 99.0659 45.5065 99.0659 44.7272V44.5371C99.0659 43.4726 97.4132 43.1875 96.5584 43.1875H96.3494C96.5494 44.1838 96.6701 45.1944 96.7103 46.2098V46.1338Z" fill="#F9F8CE"/>
<path d="M102.58 46.0007C102.58 45.4305 102.58 44.5181 102.447 43.2825H102.58L102.447 43.0734V42.7883C102.447 42.237 103.112 41.9709 104.48 41.9709H104.879C106.664 41.9709 107.557 42.237 107.557 42.7883C107.418 43.0544 107.285 43.1875 107.158 43.1875C106.436 43.1875 105.506 43.1875 104.328 43.0734C104.203 43.1368 104.068 43.1755 103.929 43.1875V45.0883L104.062 45.2974L105.012 45.2024H106.379C106.512 45.2024 106.702 45.3354 106.911 45.6016V46.0007C106.911 46.0958 106.74 46.2478 106.379 46.3999H104.119C103.948 46.3999 103.853 46.495 103.853 46.609C103.85 47.1216 103.94 47.6304 104.119 48.1107C105.544 47.9776 106.36 47.9206 106.55 47.9206L106.949 48.3198V48.719C106.949 49.0991 106.246 49.2892 104.841 49.2892H103.169C102.732 49.2892 102.504 48.9851 102.504 48.3768L102.58 46.0007Z" fill="#F9F8CE"/>
<path d="M111.642 41.3817H111.889C113.902 41.5907 114.928 42.237 114.928 43.2825V43.7197C114.891 44.1841 114.762 44.6365 114.548 45.0503C114.941 45.1956 115.281 45.4535 115.528 45.7916C115.775 46.1297 115.916 46.533 115.935 46.9512C115.935 48.4719 114.548 49.2322 111.775 49.2322C111.446 49.2601 111.116 49.2601 110.787 49.2322C110.293 49.2322 110.027 48.5859 110.027 47.3313C109.864 46.4216 109.782 45.4993 109.78 44.5751C109.78 42.6742 110.198 41.8188 111.053 41.8188C111.015 41.4957 111.224 41.4007 111.642 41.3817ZM111.395 44.7462H112.174L113.465 44.5941C113.715 44.1984 113.809 43.7247 113.731 43.2635C113.543 43.0114 113.296 42.8099 113.01 42.6772C112.725 42.5445 112.412 42.4847 112.098 42.5032H111.946L111.262 42.6362V44.423L111.395 44.7462ZM111.395 46.7801V47.7495L112.041 47.8636H112.421C113.921 47.8636 114.681 47.5024 114.681 46.8941C114.634 46.6608 114.508 46.4508 114.325 46.2987C114.142 46.1466 113.912 46.0616 113.674 46.0578C113.195 46.118 112.713 46.1498 112.231 46.1528H111.946L111.395 46.0578C111.395 46.1528 111.395 46.1718 111.281 46.1718L111.395 46.7801Z" fill="#F9F8CE"/>
<path d="M119.449 45.2214C119.615 46.4115 119.691 47.6124 119.677 48.814C119.644 48.9277 119.588 49.0335 119.513 49.125C119.438 49.2165 119.345 49.2917 119.24 49.3462H118.784C118.309 49.3462 118.062 48.0347 118.062 45.3925V43.1495C118.053 43.0631 118.063 42.9757 118.093 42.8939C118.122 42.8121 118.17 42.7382 118.232 42.6777C118.294 42.6171 118.37 42.5717 118.452 42.5447C118.535 42.5178 118.622 42.5101 118.708 42.5222C119.003 42.9012 119.22 43.3347 119.348 43.7979C119.475 44.2611 119.509 44.7448 119.449 45.2214Z" fill="#F9F8CE"/>
<path d="M126.82 48.0346V48.3768C126.82 48.6429 126.725 48.795 126.554 48.833H126.383C126.022 48.833 125.433 48.3388 124.597 47.3313H123.742C123.628 47.3313 123.59 47.3313 123.59 47.4834C123.58 47.5399 123.58 47.5979 123.59 47.6545C123.457 48.5289 123.267 48.9851 123.02 48.9851H122.489C122.28 48.871 122.109 48.1297 121.957 46.7991C121.951 46.7105 121.951 46.6216 121.957 46.533C121.957 46.3619 121.957 45.1263 121.805 42.8263C122.306 42.4159 122.944 42.2119 123.59 42.256H123.818C124.538 42.1471 125.273 42.2876 125.902 42.654C126.53 43.0205 127.015 43.591 127.276 44.2709V44.6321C127.273 45.0904 127.148 45.5396 126.914 45.9337C126.68 46.3278 126.346 46.6527 125.946 46.8751C125.946 46.8751 126.231 47.2933 126.82 48.0346ZM123.495 46.1338C125.072 45.9627 125.851 45.5065 125.851 44.7272V44.5371C125.851 43.4726 124.198 43.1875 123.324 43.1875H123.134C123.317 44.1859 123.432 45.1957 123.476 46.2098L123.495 46.1338Z" fill="#F9F8CE"/>
<path d="M131.436 46.3999C131.436 45.7536 131.436 44.7842 131.55 43.4726H130.695C129.384 43.3205 128.795 43.1114 128.795 42.8263V42.4651C128.851 42.3442 128.943 42.244 129.059 42.179C129.175 42.1141 129.309 42.0878 129.441 42.104H131.341C131.618 42.1374 131.899 42.1374 132.177 42.104C132.486 42.1302 132.798 42.1302 133.107 42.104H134.798C135.482 42.104 135.824 42.3701 135.824 42.9213C135.824 43.4726 135.368 43.5676 135.083 43.5676C134.437 43.5676 133.943 43.4726 133.582 43.4726H132.917V44.29C132.879 44.7771 132.879 45.2665 132.917 45.7536C132.886 46.1776 132.886 46.6032 132.917 47.0272C132.917 47.1793 132.917 47.6355 132.917 48.4148C132.702 48.833 132.455 49.0421 132.177 49.0421C131.778 49.0421 131.531 48.776 131.417 48.2247L131.436 46.3999Z" fill="#F9F8CE"/>
<path d="M138.559 48.814C138.046 48.814 137.705 46.7611 137.534 42.6362C137.597 42.4316 137.724 42.2522 137.894 42.123C137.894 42.123 137.894 42.0089 138.065 42.0089H138.236C138.54 42.0089 138.768 42.8453 138.958 44.5181C140.858 44.347 142.017 44.252 142.53 44.252V43.2825C142.53 42.7503 142.644 42.4842 142.853 42.4842C143.061 42.4842 142.853 42.2751 143.061 42.2751H143.308C143.859 42.2751 144.144 43.9478 144.144 47.2933V47.9966C143.971 48.1976 143.773 48.3764 143.555 48.5289H143.024C142.911 48.4374 142.822 48.3211 142.763 48.1891C142.703 48.0571 142.676 47.9131 142.682 47.7685C142.563 47.0901 142.493 46.4041 142.473 45.7156C141.367 45.7277 140.263 45.8103 139.167 45.9627C139.3 47.1413 139.376 47.8636 139.395 48.2057C139.271 48.4817 139.074 48.7184 138.825 48.89L138.559 48.814Z" fill="#F9F8CE"/>
<path d="M153.681 41.4767C154.839 41.4767 155.295 42.5412 155.371 43.5296C155.315 43.8749 155.186 44.2043 154.993 44.496C154.799 44.7876 154.546 45.0349 154.251 45.2214L154.726 45.9627C154.831 45.826 154.966 45.7155 155.121 45.6397C155.276 45.5638 155.446 45.5248 155.618 45.5255H156.093C156.226 45.5255 156.34 45.6396 156.416 45.8677V45.9817C155.751 46.533 155.428 46.9321 155.428 47.1602C155.663 47.5819 155.866 48.0203 156.036 48.4718C156.036 48.6999 155.865 48.833 155.523 48.89H155.124C154.906 48.7278 154.724 48.5203 154.593 48.2818C154.043 48.8314 153.316 49.1681 152.541 49.2322H152.294C151.934 49.2814 151.568 49.2162 151.248 49.0456C150.927 48.875 150.669 48.6077 150.508 48.2818L150.375 47.9016C150.375 47.0842 151.135 46.1528 152.617 45.1073C152.001 44.5003 151.589 43.7163 151.439 42.8643C151.439 42.5792 151.667 42.237 152.104 41.8378C152.457 41.6183 152.866 41.506 153.282 41.5147L153.681 41.4767ZM151.572 47.9016C151.572 48.0346 151.857 48.1297 152.408 48.2057C152.959 48.2818 153.377 47.8446 153.928 47.1222C153.756 46.7009 153.519 46.3095 153.225 45.9627C152.484 46.4022 151.905 47.0688 151.572 47.8636V47.9016ZM153.472 42.3701C153.199 42.4309 152.953 42.5774 152.769 42.7883V42.9784C152.968 43.4943 153.258 43.9706 153.624 44.385C154.042 44.0809 154.27 43.7957 154.27 43.5296V43.3205C154.263 43.0983 154.183 42.8846 154.042 42.7127C153.901 42.5408 153.707 42.4203 153.491 42.3701H153.472Z" fill="#F9F8CE"/>
<path d="M163.578 45.3924C163.578 47.2933 164.281 48.1107 165.686 48.1107C166.13 48.1095 166.561 47.97 166.921 47.7115C167.071 47.5629 167.189 47.3849 167.268 47.1887C167.346 46.9925 167.383 46.7822 167.377 46.571V46.4569H166.066C165.914 46.4569 165.781 46.3049 165.667 46.0197V45.8106C165.667 45.2784 167.7 45.0123 168.194 45.0123C168.384 45.0123 168.574 45.1833 168.764 45.5255V46.571C168.767 47.1698 168.562 47.7512 168.185 48.2157C167.807 48.6803 167.28 48.9992 166.693 49.1181C166.238 49.2949 165.757 49.3976 165.269 49.4223C164.568 49.4128 163.893 49.1617 163.356 48.7114C162.82 48.2612 162.455 47.6394 162.324 46.9511C162.324 46.3619 162.324 45.8677 162.324 45.4875C162.368 44.7633 162.583 44.0598 162.951 43.4346C163.39 42.7673 164.071 42.297 164.851 42.123C165.101 42.0711 165.355 42.0393 165.61 42.0279H165.952C166.161 42.199 166.256 42.3321 166.256 42.4461C165.679 42.8924 165.039 43.2511 164.357 43.5106C163.955 44.0688 163.688 44.7131 163.578 45.3924Z" fill="#F9F8CE"/>
<path d="M170.967 46.0007C170.967 45.4305 170.967 44.5181 170.834 43.2825H170.967L170.834 43.0734V42.7883C170.834 42.237 171.518 41.9709 172.867 41.9709H173.266C175.166 41.9709 175.963 42.237 175.963 42.7883C175.837 43.0544 175.704 43.1875 175.564 43.1875C174.843 43.1875 173.893 43.1494 172.715 43.0734C172.591 43.1368 172.455 43.1755 172.316 43.1875V45.0883L172.449 45.2974L173.399 45.2024H174.767C174.9 45.2024 175.09 45.3354 175.298 45.6016V46.0007C175.298 46.0958 175.128 46.2478 174.767 46.3999H172.582C172.411 46.3999 172.316 46.495 172.316 46.609C172.324 47.1206 172.414 47.6276 172.582 48.1107C174.007 47.9776 174.824 47.9206 175.014 47.9206L175.412 48.3198V48.719C175.412 49.0991 174.71 49.2892 173.304 49.2892H171.651C171.195 49.2892 170.967 48.9851 170.967 48.3768V46.0007Z" fill="#F9F8CE"/>
<path d="M179.231 48.2627H178.813C178.642 48.2627 178.509 48.0727 178.452 47.6925C178.452 44.1379 178.623 42.3701 178.984 42.3701H179.269C179.668 42.3701 180.39 42.9023 181.434 43.9858C182.225 44.8672 183.076 45.6929 183.98 46.4569C184.284 44.0999 184.588 42.9213 184.949 42.9213H185.557C185.842 43.0354 185.994 43.2065 185.994 43.4536C185.616 44.6473 185.361 45.8766 185.234 47.1222C185.169 47.4551 185.125 47.7915 185.101 48.1297C184.926 48.2651 184.714 48.3446 184.493 48.3578H184.265C183.999 48.3578 183.296 47.8065 182.156 46.704L179.915 44.499C179.866 45.6573 179.714 46.8088 179.459 47.9396C179.44 48.1487 179.345 48.2627 179.231 48.2627Z" fill="#F9F8CE"/>
<path d="M189.679 45.2214C189.847 46.4117 189.936 47.6119 189.944 48.814C189.907 48.9284 189.848 49.0343 189.77 49.1257C189.691 49.217 189.596 49.292 189.489 49.3462H189.033C188.558 49.3462 188.33 48.0346 188.33 45.3924V43.1494C188.317 43.0641 188.324 42.9769 188.351 42.895C188.378 42.813 188.424 42.7385 188.485 42.6774C188.546 42.6164 188.62 42.5706 188.702 42.5436C188.784 42.5166 188.871 42.5093 188.957 42.5222C189.249 42.9021 189.464 43.3362 189.587 43.7995C189.711 44.2628 189.742 44.746 189.679 45.2214Z" fill="#F9F8CE"/>
<path d="M196.859 42.5602C196.895 42.4261 196.978 42.3096 197.094 42.2326C197.209 42.1557 197.348 42.1234 197.486 42.142H197.771C198.322 42.5792 198.588 43.8528 198.588 45.9437V46.1148C198.599 46.7999 198.366 47.4666 197.931 47.9959C197.496 48.5251 196.887 48.8825 196.213 49.0041L195.757 49.0991C193.725 49.0991 192.547 47.8446 192.186 45.2974V42.5602C192.186 42.5602 192.319 42.3701 192.566 42.237C193.345 42.237 193.744 43.4536 193.744 45.8867C194.048 47.1413 194.712 47.7875 195.757 47.7875C196.21 47.6833 196.608 47.4169 196.878 47.0387C197.147 46.6604 197.269 46.1965 197.22 45.7346L196.859 42.5602Z" fill="#F9F8CE"/>
<path d="M200.792 44.1189V43.9098C201.114 42.7693 201.684 42.218 202.482 42.218H202.919C203.299 42.218 203.489 42.3701 203.489 42.5792V42.8643C203.201 43.1038 202.873 43.2905 202.52 43.4156C202.315 43.6214 202.182 43.8881 202.14 44.1759C202.14 44.6131 202.577 45.1073 203.451 45.6206C203.931 46.054 204.253 46.6364 204.363 47.2743C204.363 48.0917 203.698 48.757 202.463 49.2702H201.893C201.361 49.2702 201.095 49.0041 201.095 48.6619C201.097 48.6303 201.097 48.5985 201.095 48.5669C201.095 48.2247 201.38 48.0156 201.95 47.9396C202.107 47.9621 202.268 47.9422 202.415 47.8821C202.562 47.8219 202.69 47.7237 202.786 47.5974C202.849 47.536 202.899 47.462 202.932 47.3801C202.964 47.2982 202.98 47.2104 202.976 47.1222C202.976 46.9512 202.539 46.514 201.646 45.8296C201.442 45.7283 201.285 45.5509 201.209 45.3354C200.967 44.9731 200.823 44.5538 200.792 44.1189Z" fill="#F9F8CE"/>
</g>
<defs>
<clipPath id="clip0_14_351">
<rect width="240" height="51" fill="white"/>
</clipPath>
</defs>
</svg>
