<svg width="15" height="13" viewBox="0 0 15 13" fill="none" xmlns="http://www.w3.org/2000/svg">
<path d="M4.75994 12.5019C10.3337 12.5019 13.3818 7.8842 13.3818 3.88009C13.3818 3.74881 13.3791 3.61834 13.3731 3.48837C13.9647 3.0607 14.479 2.52701 14.8848 1.91931C14.3418 2.16056 13.7576 2.32302 13.1446 2.39638C13.7702 2.02123 14.2505 1.42764 14.477 0.720167C13.8913 1.06726 13.2431 1.31982 12.553 1.45571C11.9999 0.866717 11.2126 0.498291 10.3411 0.498291C8.66755 0.498291 7.31036 1.85548 7.31036 3.52841C7.31036 3.7662 7.33695 3.99743 7.38897 4.21931C4.87055 4.09262 2.63735 2.88674 1.14297 1.05331C0.882529 1.501 0.732534 2.02139 0.732534 2.57641C0.732534 3.62769 1.26753 4.55573 2.08102 5.09877C1.58393 5.08351 1.11704 4.94697 0.708574 4.71968C0.707917 4.73232 0.707917 4.74495 0.707917 4.75824C0.707917 6.22604 1.75264 7.45112 3.13903 7.72895C2.8845 7.79821 2.61667 7.83546 2.34015 7.83546C2.14486 7.83546 1.95498 7.8161 1.77052 7.78081C2.15635 8.98472 3.27491 9.86074 4.60141 9.88552C3.56407 10.6983 2.2576 11.1826 0.837892 11.1826C0.593369 11.1826 0.352128 11.1687 0.11499 11.1406C1.45609 12.0002 3.04844 12.5019 4.75994 12.5019Z" fill="white"/>
</svg>
