<svg width="15" height="15" viewBox="0 0 15 15" fill="none" xmlns="http://www.w3.org/2000/svg">
<path d="M14.6843 14.8851H0.315674V14.2287C0.315674 10.2672 3.53862 7.04443 7.50005 7.04443C11.4615 7.04443 14.6843 10.2674 14.6843 14.2287V14.8851ZM1.66498 13.5722H13.335C13.0076 10.6425 10.5157 8.35731 7.50005 8.35731C4.48438 8.35731 1.99238 10.6425 1.66498 13.5722Z" fill="white"/>
<path d="M7.5001 8.3573C5.22784 8.3573 3.37915 6.50861 3.37915 4.23635C3.37915 1.96409 5.22784 0.115234 7.5001 0.115234C9.77252 0.115234 11.6211 1.96393 11.6211 4.23619C11.6211 6.50844 9.77252 8.3573 7.5001 8.3573ZM7.5001 1.42811C5.95173 1.42811 4.69203 2.68781 4.69203 4.23619C4.69203 5.78456 5.95173 7.04442 7.5001 7.04442C9.04864 7.04442 10.3082 5.78472 10.3082 4.23635C10.3082 2.68798 9.04864 1.42811 7.5001 1.42811Z" fill="white"/>
</svg>
